<svg width="240" height="240" viewBox="0 0 240 240" xmlns="http://www.w3.org/2000/svg">
  <!-- Dial Mark Centered -->
  <circle cx="120" cy="80" r="60" fill="none" stroke="#EFA436" stroke-width="16" stroke-dasharray="314.1 376.9" stroke-dashoffset="-157" stroke-linecap="butt" transform="rotate(-90 120 80)" />
  <rect x="110" y="60" width="6" height="40" fill="#F0EADB" />
  <rect x="124" y="60" width="6" height="40" fill="#F0EADB" />
  <!-- Wordmark Centered — IBM Plex Sans Bold (700), OUTLINED to paths (no live font dependency).
       Source font: github.com/IBM/plex IBMPlexSans-Bold.ttf (OFL-1.1), UPM 1000.
       Geometry reproduces the prior <text> at x=120 y=200 font-size=48 letter-spacing=-1.5 text-anchor=middle
       (computed advance width 208.44px → start x=15.78, centered on x=120). -->
  <g fill="#F0EADB" transform="translate(15.780,200) scale(0.048000,-0.048000)"><path transform="translate(0.00,0)" d="M77 0V698H407Q456 698 495.0 681.5Q534 665 561.5 636.0Q589 607 604.0 565.5Q619 524 619 475Q619 425 604.0 384.0Q589 343 561.5 314.0Q534 285 495.0 268.5Q456 252 407 252H229V0ZM229 384H389Q423 384 442.5 401.5Q462 419 462 453V497Q462 531 442.5 548.5Q423 566 389 566H229Z"/><path transform="translate(624.75,0)" d="M288 -12Q228 -12 181.0 7.5Q134 27 101.5 62.5Q69 98 52.5 149.0Q36 200 36 263Q36 325 52.0 375.5Q68 426 99.5 462.0Q131 498 177.0 517.5Q223 537 282 537Q347 537 393.5 515.0Q440 493 469.5 456.0Q499 419 512.5 370.5Q526 322 526 269V225H189V217Q189 165 217.0 134.5Q245 104 305 104Q351 104 380.0 122.5Q409 141 434 167L508 75Q473 34 416.5 11.0Q360 -12 288 -12ZM285 428Q240 428 214.5 398.5Q189 369 189 320V312H373V321Q373 369 351.5 398.5Q330 428 285 428Z"/><path transform="translate(1155.50,0)" d="M69 0V525H217V436H223Q237 477 272.0 507.0Q307 537 369 537Q450 537 491.5 483.0Q533 429 533 329V0H385V317Q385 368 369.0 392.5Q353 417 312 417Q294 417 277.0 412.5Q260 408 246.5 398.0Q233 388 225.0 373.5Q217 359 217 340V0Z"/><path transform="translate(1720.25,0)" d="M229 0H77V698H408Q456 698 495.0 682.0Q534 666 561.5 636.5Q589 607 604.0 566.0Q619 525 619 475Q619 404 587.5 351.0Q556 298 492 274L629 0H460L338 256H229ZM389 384Q423 384 442.5 401.5Q462 419 462 453V497Q462 531 442.5 548.5Q423 566 389 566H229V384Z"/><path transform="translate(2363.00,0)" d="M221 698V270Q221 196 250.0 159.5Q279 123 347 123Q415 123 444.0 159.5Q473 196 473 270V698H621V286Q621 209 606.5 152.5Q592 96 559.0 59.5Q526 23 474.0 5.5Q422 -12 347 -12Q272 -12 220.0 5.5Q168 23 135.0 59.5Q102 96 87.5 152.5Q73 209 73 286V698Z"/><path transform="translate(3025.75,0)" d="M303 -12Q211 -12 147.0 19.5Q83 51 38 101L138 202Q209 122 313 122Q369 122 396.0 145.0Q423 168 423 206Q423 235 407.0 254.5Q391 274 342 281L273 290Q162 304 110.5 357.0Q59 410 59 498Q59 545 77.0 584.0Q95 623 128.5 651.0Q162 679 210.5 694.5Q259 710 321 710Q400 710 460.0 685.0Q520 660 563 612L462 510Q437 539 401.5 557.5Q366 576 312 576Q261 576 236.0 558.0Q211 540 211 508Q211 472 230.5 456.0Q250 440 294 433L363 422Q471 405 523.0 355.5Q575 306 575 215Q575 165 557.0 123.0Q539 81 504.5 51.0Q470 21 419.0 4.5Q368 -12 303 -12Z"/><path transform="translate(3618.50,0)" d="M495 286H229V0H77V698H229V420H495V698H647V0H495Z"/></g>
</svg>
